<?xml version="1.0" encoding="UTF-8"?>
<svg width="32px" height="32px" viewBox="0 0 32 32" version="1.1" xmlns="http://www.w3.org/2000/svg">
    <title>AutoFix Mechanic Shop Favicon</title>
    <g stroke="none" stroke-width="1" fill="none" fill-rule="evenodd">
        <rect fill="#0A2463" x="0" y="0" width="32" height="32" rx="4"></rect>
        <path d="M25,20 L20,20 L20,23 L16,19 L20,15 L20,18 L25,18 L25,14 L28,14 L24,10 L20,14 L23,14 L23,16 L18,16 L18,13 L14,17 L18,21 L18,18 L23,18 L23,20 L25,20 Z" fill="#FFFFFF" fill-rule="nonzero"></path>
        <circle fill="#E63946" cx="12" cy="16" r="6"></circle>
        <circle fill="#FFFFFF" cx="12" cy="16" r="3"></circle>
        <path d="M7,8 L9,8 L9,24 L7,24 L7,8 Z" fill="#FFFFFF" fill-rule="nonzero"></path>
    </g>
</svg>